<svg xmlns="http://www.w3.org/2000/svg" width="24" height="25" viewBox="0 0 24 25" fill="none">
  <path d="M9.55 15.7098L18.025 7.23481C18.225 7.03481 18.4583 6.93481 18.725 6.93481C18.9917 6.93481 19.225 7.03481 19.425 7.23481C19.625 7.43481 19.725 7.67248 19.725 7.94781C19.725 8.22315 19.625 8.46048 19.425 8.65981L10.25 17.8598C10.05 18.0598 9.81666 18.1598 9.55 18.1598C9.28333 18.1598 9.05 18.0598 8.85 17.8598L4.55 13.5598C4.35 13.3598 4.254 13.1225 4.262 12.8478C4.27 12.5731 4.37433 12.3355 4.575 12.1348C4.77566 11.9341 5.01333 11.8341 5.288 11.8348C5.56266 11.8355 5.8 11.9355 6 12.1348L9.55 15.7098Z" fill="#C0362E"/>
</svg>