<svg xmlns="http://www.w3.org/2000/svg" width="24" height="25" viewBox="0 0 24 25" fill="none">
  <path d="M16 3.55981C17.3261 3.55981 18.5979 4.0866 19.5355 5.02428C20.4732 5.96196 21 7.23373 21 8.55981V16.5598C21 17.8859 20.4732 19.1577 19.5355 20.0953C18.5979 21.033 17.3261 21.5598 16 21.5598H8C6.67392 21.5598 5.40215 21.033 4.46447 20.0953C3.52678 19.1577 3 17.8859 3 16.5598V8.55981C3 7.23373 3.52678 5.96196 4.46447 5.02428C5.40215 4.0866 6.67392 3.55981 8 3.55981H16ZM12 8.55981C10.9391 8.55981 9.92172 8.98124 9.17157 9.73139C8.42143 10.4815 8 11.4989 8 12.5598C8 13.6207 8.42143 14.6381 9.17157 15.3882C9.92172 16.1384 10.9391 16.5598 12 16.5598C13.0609 16.5598 14.0783 16.1384 14.8284 15.3882C15.5786 14.6381 16 13.6207 16 12.5598C16 11.4989 15.5786 10.4815 14.8284 9.73139C14.0783 8.98124 13.0609 8.55981 12 8.55981ZM12 10.5598C12.5304 10.5598 13.0391 10.7705 13.4142 11.1456C13.7893 11.5207 14 12.0294 14 12.5598C14 13.0902 13.7893 13.599 13.4142 13.974C13.0391 14.3491 12.5304 14.5598 12 14.5598C11.4696 14.5598 10.9609 14.3491 10.5858 13.974C10.2107 13.599 10 13.0902 10 12.5598C10 12.0294 10.2107 11.5207 10.5858 11.1456C10.9609 10.7705 11.4696 10.5598 12 10.5598ZM16.5 7.05981C16.2348 7.05981 15.9804 7.16517 15.7929 7.35271C15.6054 7.54024 15.5 7.7946 15.5 8.05981C15.5 8.32503 15.6054 8.57938 15.7929 8.76692C15.9804 8.95446 16.2348 9.05981 16.5 9.05981C16.7652 9.05981 17.0196 8.95446 17.2071 8.76692C17.3946 8.57938 17.5 8.32503 17.5 8.05981C17.5 7.7946 17.3946 7.54024 17.2071 7.35271C17.0196 7.16517 16.7652 7.05981 16.5 7.05981Z" fill="#232323"/>
</svg>