<svg xmlns="http://www.w3.org/2000/svg" width="169" height="48" viewBox="0 0 169 48" fill="none">
  <path d="M6.00358 31.3499C5.89453 31.4592 5.83955 31.5914 5.83955 31.7485V40.4779C5.83955 40.6341 5.89453 40.7663 6.00358 40.8765C6.11354 40.9857 6.24549 41.0408 6.40129 41.0408H11.8738C12.0306 41.0408 12.1625 40.9857 12.2715 40.8765C12.3814 40.7663 12.4356 40.6341 12.4356 40.4779V37.7939H31.9871V40.4779C31.9871 40.6341 32.0421 40.7663 32.1511 40.8765C32.2611 40.9857 32.393 41.0408 32.5489 41.0408H38.0214C38.178 41.0408 38.3101 40.9857 38.4191 40.8765C38.529 40.7663 38.5831 40.6341 38.5831 40.4779V31.7485C38.5831 31.5914 38.529 31.4592 38.4191 31.3499C38.3101 31.2398 38.178 31.1856 38.0214 31.1856H6.40129C6.40129 31.1856 6.3967 31.1856 6.39487 31.1856C6.24183 31.1874 6.11171 31.2416 6.00358 31.3499Z" fill="#C0362E"/>
  <path d="M12.4345 4.831C12.4345 4.67398 12.3804 4.54175 12.2704 4.43248C12.1613 4.3223 12.0294 4.26813 11.8727 4.26813H6.40018C6.2444 4.26813 6.11244 4.3223 6.00248 4.43248C5.89342 4.54175 5.83845 4.67398 5.83845 4.831V13.5605C5.83845 13.7175 5.89342 13.8497 6.00248 13.959C6.11244 14.0691 6.2444 14.1233 6.40018 14.1233H38.0203C38.1769 14.1233 38.3089 14.0691 38.4179 13.959C38.5279 13.8497 38.5819 13.7175 38.5819 13.5605V4.831C38.5819 4.67398 38.5279 4.54175 38.4179 4.43248C38.3089 4.3223 38.1769 4.26813 38.0203 4.26813H32.5477C32.3919 4.26813 32.26 4.3223 32.1501 4.43248C32.0409 4.54175 31.986 4.67398 31.986 4.831V7.51493H12.4345V4.831Z" fill="#C0362E"/>
  <path d="M5.83955 19.8943V25.3962C5.83955 25.5523 5.89453 25.6846 6.00358 25.7947C6.11354 25.904 6.24549 25.9591 6.40129 25.9591H11.8738C12.0306 25.9591 12.1625 25.904 12.2715 25.7947C12.3805 25.6855 12.4356 25.5523 12.4356 25.3962V19.8943C12.4356 19.7373 12.3814 19.605 12.2715 19.4958C12.1625 19.3856 12.0306 19.3314 11.8738 19.3314H6.40129C6.24549 19.3314 6.11354 19.3856 6.00358 19.4958C5.89453 19.605 5.83955 19.7373 5.83955 19.8943Z" fill="#C0362E"/>
  <path d="M18.9602 19.8943V25.3962C18.9602 25.5523 19.0151 25.6846 19.1242 25.7947C19.2341 25.904 19.3661 25.9591 19.5218 25.9591H24.9944C25.1511 25.9591 25.283 25.904 25.3922 25.7947C25.5021 25.6846 25.5561 25.5523 25.5561 25.3962V19.8943C25.5561 19.7373 25.5021 19.605 25.3922 19.4958C25.283 19.3856 25.1511 19.3314 24.9944 19.3314H19.5218C19.3661 19.3314 19.2341 19.3856 19.1242 19.4958C19.0151 19.605 18.9602 19.7373 18.9602 19.8943Z" fill="#C0362E"/>
  <path d="M32.0796 19.8943V25.3962C32.0796 25.5523 32.1345 25.6846 32.2437 25.7947C32.3536 25.904 32.4855 25.9591 32.6413 25.9591H38.1139C38.2705 25.9591 38.4025 25.904 38.5116 25.7947C38.6206 25.6855 38.6757 25.5523 38.6757 25.3962V19.8943C38.6757 19.7373 38.6215 19.605 38.5116 19.4958C38.4025 19.3856 38.2705 19.3314 38.1139 19.3314H32.6413C32.4855 19.3314 32.3536 19.3856 32.2437 19.4958C32.1345 19.605 32.0796 19.7373 32.0796 19.8943Z" fill="#C0362E"/>
  <path d="M100.711 28.1968V13.5338H104.033V18.1313H106.17V21.0641H104.033V28.1968C104.033 28.9902 104.35 29.3858 105.22 29.3858H106.17V32.3186H104.903C102.689 32.3186 100.711 31.0497 100.711 28.1968Z" fill="black"/>
  <path d="M158.398 28.1968V13.5338H161.72V18.1313H163.856V21.0641H161.72V28.1968C161.72 28.9902 162.036 29.3858 162.906 29.3858H163.856V32.3186H162.59C160.376 32.3186 158.398 31.0497 158.398 28.1968Z" fill="black"/>
  <path d="M91.1576 17.5473C87.1237 17.5473 83.8221 20.8759 83.8221 24.9178C83.8221 28.9599 87.1549 32.2883 91.1888 32.2883C92.6916 32.2883 94.2586 31.8127 95.3115 31.0203V32.2232H98.4721V24.9169C98.4721 20.875 95.1915 17.5464 91.1567 17.5464L91.1576 17.5473ZM91.1988 29.0397C88.9052 29.0397 87.0862 27.2161 87.0862 24.9178C87.0862 22.6195 88.9052 20.796 91.1988 20.796C93.4925 20.796 95.3115 22.6186 95.3115 24.9178C95.3115 27.217 93.4925 29.0397 91.1988 29.0397Z" fill="black"/>
  <path d="M135.674 17.5473C131.639 17.5473 128.338 20.8759 128.338 24.9178C128.338 28.9599 131.671 32.2883 135.704 32.2883C137.208 32.2883 138.775 31.8127 139.827 31.0203V32.2232H142.988V24.9169C142.988 20.875 139.707 17.5464 135.673 17.5464L135.674 17.5473ZM135.715 29.0397C133.421 29.0397 131.602 27.2161 131.602 24.9178C131.602 22.6195 133.421 20.796 135.715 20.796C138.008 20.796 139.827 22.6186 139.827 24.9178C139.827 27.217 138.008 29.0397 135.715 29.0397Z" fill="black"/>
  <path d="M72.8719 32.3186V23.9969C72.8719 22.412 74.2162 21.0641 75.8776 21.0641C77.4593 21.0641 78.8036 22.412 78.8036 23.9969V32.3186H82.1254V24.0759C82.1254 20.6674 79.2782 17.8145 75.8767 17.8145C74.7688 17.8145 73.7406 18.1304 72.871 18.607V13.5338H69.628V32.3186H72.8719Z" fill="black"/>
  <path d="M144.474 27.6422C144.474 30.7329 147.637 32.2397 150.802 32.3186C154.993 32.3186 156.892 30.1783 156.971 28.0389C157.051 24.7103 153.886 23.8371 151.039 23.4414C149.142 23.1246 148.191 22.9666 148.27 22.0144C148.27 21.0632 149.774 20.8254 150.643 20.8254C151.671 20.8254 153.175 21.1422 153.175 22.4111H156.417C156.338 19.6362 154.044 17.8136 150.723 17.7346C147.401 17.7346 145.107 19.3195 144.949 21.8557C144.634 25.6598 149.142 26.2943 150.564 26.5321C152.462 26.7698 153.491 27.1665 153.649 27.801C153.807 28.8313 152.699 29.227 150.881 29.227C148.508 29.227 147.875 28.1178 147.717 27.6413H144.475L144.474 27.6422Z" fill="black"/>
  <path d="M50.8542 17.6722C51.7146 16.2022 52.883 15.0544 54.3593 14.228C55.8355 13.4025 57.452 12.9894 59.2087 12.9894C61.2192 12.9894 63.008 13.4842 64.5749 14.4731C66.141 15.463 67.2782 16.8651 67.9847 18.6795H64.2624C63.773 17.6814 63.0941 16.9376 62.2244 16.4473C61.3548 15.957 60.3495 15.7128 59.2087 15.7128C57.9588 15.7128 56.8454 15.9946 55.8667 16.5566C54.8889 17.1194 54.1228 17.9274 53.5712 18.9798C53.0187 20.0329 52.7428 21.2578 52.7428 22.6553C52.7428 24.0529 53.0187 25.2787 53.5712 26.331C54.1238 27.3841 54.8889 28.1959 55.8667 28.7679C56.8445 29.34 57.9588 29.6255 59.2087 29.6255C60.3495 29.6255 61.3548 29.3803 62.2244 28.891C63.0941 28.4007 63.773 27.6569 64.2624 26.6587H67.9847C67.2782 28.4741 66.1419 29.8717 64.5749 30.8513C63.008 31.8311 61.2192 32.3214 59.2087 32.3214C57.4336 32.3214 55.8126 31.9091 54.3455 31.0827C52.8785 30.2573 51.7146 29.1086 50.8542 27.6385C49.9937 26.1685 49.564 24.5074 49.564 22.6562C49.564 20.8051 49.9937 19.1441 50.8542 17.6741V17.6722Z" fill="black"/>
  <path d="M109.331 17.6722C110.191 16.2022 111.36 15.0544 112.836 14.228C114.313 13.4025 115.929 12.9894 117.686 12.9894C119.696 12.9894 121.484 13.4842 123.052 14.4731C124.618 15.463 125.756 16.8651 126.462 18.6795H122.739C122.25 17.6814 121.57 16.9376 120.701 16.4473C119.832 15.957 118.827 15.7128 117.686 15.7128C116.436 15.7128 115.323 15.9946 114.344 16.5566C113.365 17.1194 112.6 17.9274 112.048 18.9798C111.495 20.0329 111.22 21.2578 111.22 22.6553C111.22 24.0529 111.495 25.2787 112.048 26.331C112.601 27.3841 113.365 28.1959 114.344 28.7679C115.322 29.34 116.436 29.6255 117.686 29.6255C118.827 29.6255 119.832 29.3803 120.701 28.891C121.57 28.4007 122.25 27.6569 122.739 26.6587H126.462C125.756 28.4741 124.619 29.8717 123.052 30.8513C121.484 31.8311 119.696 32.3214 117.686 32.3214C115.911 32.3214 114.289 31.9091 112.822 31.0827C111.355 30.2573 110.191 29.1086 109.331 27.6385C108.471 26.1685 108.041 24.5074 108.041 22.6562C108.041 20.8051 108.471 19.1441 109.331 17.6741V17.6722Z" fill="black"/>
</svg>