<svg xmlns="http://www.w3.org/2000/svg" width="72" height="72" viewBox="0 0 72 72" fill="none">
  <g opacity="0.6">
    <path d="M25 51.856C24.4078 51.856 23.8399 51.6207 23.4212 51.202C23.0025 50.7833 22.7672 50.2153 22.7672 49.6232V22.8295C22.7674 22.4491 22.8648 22.075 23.0502 21.7427C23.2356 21.4105 23.5028 21.1312 23.8264 20.9312C24.1501 20.7312 24.5195 20.6173 24.8996 20.6002C25.2796 20.583 25.6578 20.6633 25.9981 20.8334L52.7917 34.2302C53.1621 34.4158 53.4735 34.7009 53.6912 35.0534C53.9088 35.4059 54.0241 35.812 54.0241 36.2263C54.0241 36.6406 53.9088 37.0468 53.6912 37.3993C53.4735 37.7518 53.1621 38.0368 52.7917 38.2225L25.9981 51.6193C25.6883 51.7746 25.3466 51.8556 25 51.856ZM27.2328 26.4422V46.0105L46.8011 36.2263L27.2328 26.4422Z" fill="#6C6C6C"/>
    <path d="M36.1641 9.43283C41.4633 9.43283 46.6436 11.0043 51.0498 13.9484C55.456 16.8925 58.8902 21.0771 60.9182 25.973C62.9461 30.8689 63.4767 36.2562 62.4429 41.4537C61.409 46.6511 58.8572 51.4253 55.11 55.1725C51.3629 58.9196 46.5887 61.4715 41.3912 62.5053C36.1938 63.5391 30.8065 63.0085 25.9106 60.9806C21.0147 58.9526 16.8301 55.5184 13.886 51.1122C10.9418 46.706 9.37041 41.5258 9.37041 36.2265C9.37041 29.1204 12.1933 22.3053 17.2181 17.2805C22.2429 12.2557 29.0579 9.43283 36.1641 9.43283ZM36.1641 4.96722C29.9816 4.96722 23.9379 6.80055 18.7973 10.2354C13.6568 13.6702 9.65021 18.5522 7.28427 24.2641C4.91833 29.976 4.29929 36.2612 5.50544 42.3249C6.71158 48.3886 9.68874 53.9584 14.0604 58.3301C18.4321 62.7018 24.002 65.679 30.0657 66.8851C36.1294 68.0913 42.4146 67.4722 48.1265 65.1063C53.8383 62.7403 58.7204 58.7338 62.1552 53.5932C65.59 48.4526 67.4233 42.409 67.4233 36.2265C67.4233 27.936 64.1299 19.9851 58.2677 14.1228C52.4054 8.2606 44.4545 4.96722 36.1641 4.96722Z" fill="#6C6C6C"/>
  </g>
</svg>