<svg xmlns="http://www.w3.org/2000/svg" width="24" height="25" viewBox="0 0 24 25" fill="none">
  <path fill-rule="evenodd" clip-rule="evenodd" d="M12 2.55981C6.477 2.55981 2 7.03681 2 12.5598C2 14.4498 2.525 16.2198 3.438 17.7278L2.546 20.7598C2.49478 20.9339 2.49141 21.1186 2.53624 21.2944C2.58107 21.4702 2.67245 21.6307 2.80076 21.7591C2.92907 21.8874 3.08958 21.9787 3.26542 22.0236C3.44125 22.0684 3.62592 22.065 3.8 22.0138L6.832 21.1218C8.39074 22.0648 10.1782 22.5621 12 22.5598C17.523 22.5598 22 18.0828 22 12.5598C22 7.03681 17.523 2.55981 12 2.55981ZM9.738 14.8228C11.761 16.8448 13.692 17.1118 14.374 17.1368C15.411 17.1748 16.421 16.3828 16.814 15.4638C16.8632 15.3494 16.881 15.2239 16.8655 15.1004C16.85 14.9768 16.8019 14.8596 16.726 14.7608C16.178 14.0608 15.437 13.5578 14.713 13.0578C14.5619 12.953 14.3761 12.911 14.1946 12.9404C14.0131 12.9699 13.8502 13.0686 13.74 13.2158L13.14 14.1308C13.1083 14.1798 13.0591 14.2149 13.0025 14.229C12.9459 14.2432 12.886 14.2352 12.835 14.2068C12.428 13.9738 11.835 13.5778 11.409 13.1518C10.983 12.7258 10.611 12.1598 10.402 11.7788C10.3767 11.7303 10.3696 11.6743 10.3819 11.621C10.3941 11.5676 10.425 11.5204 10.469 11.4878L11.393 10.8018C11.5252 10.6874 11.6106 10.5282 11.6328 10.3548C11.6549 10.1813 11.6123 10.0058 11.513 9.86181C11.065 9.20581 10.543 8.37181 9.786 7.81881C9.6881 7.74847 9.57369 7.70461 9.45385 7.69147C9.33402 7.67833 9.21282 7.69636 9.102 7.74381C8.182 8.13781 7.386 9.14781 7.424 10.1868C7.449 10.8688 7.716 12.7998 9.738 14.8228Z" fill="#232323"/>
</svg>