<svg xmlns="http://www.w3.org/2000/svg" width="24" height="25" viewBox="0 0 24 25" fill="none">
  <path d="M10 15.5598L15.19 12.5598L10 9.55981V15.5598ZM21.56 7.72981C21.69 8.19981 21.78 8.82981 21.84 9.62981C21.91 10.4298 21.94 11.1198 21.94 11.7198L22 12.5598C22 14.7498 21.84 16.3598 21.56 17.3898C21.31 18.2898 20.73 18.8698 19.83 19.1198C19.36 19.2498 18.5 19.3398 17.18 19.3998C15.88 19.4698 14.69 19.4998 13.59 19.4998L12 19.5598C7.81 19.5598 5.2 19.3998 4.17 19.1198C3.27 18.8698 2.69 18.2898 2.44 17.3898C2.31 16.9198 2.22 16.2898 2.16 15.4898C2.09 14.6898 2.06 13.9998 2.06 13.3998L2 12.5598C2 10.3698 2.16 8.75981 2.44 7.72981C2.69 6.82981 3.27 6.24981 4.17 5.99981C4.64 5.86981 5.5 5.77981 6.82 5.71981C8.12 5.64981 9.31 5.61981 10.41 5.61981L12 5.55981C16.19 5.55981 18.8 5.71981 19.83 5.99981C20.73 6.24981 21.31 6.82981 21.56 7.72981Z" fill="#232323"/>
</svg>