<svg xmlns="http://www.w3.org/2000/svg" width="24" height="25" viewBox="0 0 24 25" fill="none">
  <path d="M16.6 6.37981C15.9166 5.59934 15.5399 4.59721 15.54 3.55981H12.45V15.9598C12.4267 16.631 12.1436 17.2669 11.6603 17.7333C11.1771 18.1997 10.5316 18.4602 9.86003 18.4598C8.44003 18.4598 7.26003 17.2998 7.26003 15.8598C7.26003 14.1398 8.92003 12.8498 10.63 13.3798V10.2198C7.18003 9.75981 4.16003 12.4398 4.16003 15.8598C4.16003 19.1898 6.92003 21.5598 9.85003 21.5598C12.99 21.5598 15.54 19.0098 15.54 15.8598V9.56981C16.793 10.4697 18.2974 10.9525 19.84 10.9498V7.85981C19.84 7.85981 17.96 7.94981 16.6 6.37981Z" fill="#232323"/>
</svg>